<svg width="118" height="118" viewBox="0 0 118 118" fill="none" xmlns="http://www.w3.org/2000/svg">
<path d="M38.4952 71.5107C29.2488 72.1071 20.8574 75.6394 16.0959 88.2244C15.5543 89.66 14.2522 90.5315 12.7334 90.5315C10.1729 90.5315 2.25629 84.135 -9.53674e-07 82.5908C0.00230373 101.628 8.74398 118.36 29.5023 118.36C46.9857 118.36 59.0023 108.242 59.0023 90.5755C59.0023 89.8565 58.8525 89.1699 58.7788 88.4649L38.4952 71.5107ZM105.532 0C102.038 0 98.7628 1.55116 96.2645 3.80278C49.1544 46.0148 44.2523 47.0065 44.2523 59.432C44.2523 62.599 45.0013 65.6181 46.2643 68.3783L60.9728 80.6721C62.6345 81.0882 64.3469 81.3725 66.133 81.3725C80.4474 81.3725 88.7443 70.8611 114.799 22.0862C116.5 18.7688 118.002 15.1857 118.002 11.4546C118.002 4.77139 112.01 0 105.532 0Z" fill="#B23939"/>
</svg>
