<svg width="150" height="118" viewBox="0 0 150 118" fill="none" xmlns="http://www.w3.org/2000/svg">
<path d="M65.3679 118.223L51.0722 114.131C49.5723 113.715 48.7286 112.167 49.1504 110.687L81.1401 2.00238C81.562 0.523044 83.1322 -0.309083 84.632 0.10698L98.9278 4.19827C100.428 4.61433 101.271 6.16301 100.85 7.64235L68.8598 116.327C68.4146 117.807 66.8678 118.662 65.3679 118.223ZM38.6513 92.2881L48.8458 81.5629C49.9238 80.4303 49.8535 78.6274 48.6583 77.5872L27.4256 59.1649L48.6583 40.7425C49.8535 39.7023 49.9473 37.8994 48.8458 36.7668L38.6513 26.0416C37.5967 24.9321 35.8156 24.8627 34.6672 25.926L0.896414 57.1308C-0.298805 58.2172 -0.298805 60.0894 0.896414 61.1758L34.6672 92.4037C35.8156 93.467 37.5967 93.4207 38.6513 92.2881ZM115.333 92.4268L149.104 61.1989C150.299 60.1125 150.299 58.2403 149.104 57.1539L115.333 25.9029C114.208 24.8627 112.427 24.909 111.349 26.0185L101.154 36.7437C100.076 37.8763 100.146 39.6792 101.342 40.7194L122.574 59.1649L101.342 77.5872C100.146 78.6274 100.053 80.4303 101.154 81.5629L111.349 92.2881C112.403 93.4207 114.184 93.467 115.333 92.4268Z" fill="#B23939"/>
</svg>
