<svg width="148" height="119" viewBox="0 0 148 119" fill="none" xmlns="http://www.w3.org/2000/svg">
<path d="M147.95 61.0294V57.3306C147.95 55.2871 146.295 53.6319 144.251 53.6319H79.5231V44.385H96.1675C100.252 44.385 103.565 41.0723 103.565 36.9875V7.3975C103.565 3.31269 100.252 0 96.1675 0H51.7825C47.6977 0 44.385 3.31269 44.385 7.3975V36.9875C44.385 41.0723 47.6977 44.385 51.7825 44.385H68.4269V53.6319H3.69875C1.65519 53.6319 0 55.2871 0 57.3306V61.0294C0 63.0729 1.65519 64.7281 3.69875 64.7281H27.7406V73.975H14.795C10.7102 73.975 7.3975 77.2877 7.3975 81.3725V110.963C7.3975 115.047 10.7102 118.36 14.795 118.36H51.7825C55.8673 118.36 59.18 115.047 59.18 110.963V81.3725C59.18 77.2877 55.8673 73.975 51.7825 73.975H38.8369V64.7281H109.113V73.975H96.1675C92.0827 73.975 88.77 77.2877 88.77 81.3725V110.963C88.77 115.047 92.0827 118.36 96.1675 118.36H133.155C137.24 118.36 140.553 115.047 140.553 110.963V81.3725C140.553 77.2877 137.24 73.975 133.155 73.975H120.209V64.7281H144.251C146.295 64.7281 147.95 63.0729 147.95 61.0294ZM59.18 29.59V14.795H88.77V29.59H59.18ZM44.385 103.565H22.1925V88.77H44.385V103.565ZM125.757 103.565H103.565V88.77H125.757V103.565Z" fill="#B23939"/>
</svg>
